<svg width="2372" height="1402" viewBox="0 0 2372 1402" fill="none" xmlns="http://www.w3.org/2000/svg">
<path fill-rule="evenodd" clip-rule="evenodd" d="M2024.5 305.5L1716.5 1126V1401.5L1953.5 782.5H2204L2264.5 957.5H2371.5L2134.5 305.5H2024.5ZM1981 700L2078 414H2080.5L2177 700H1981Z" fill="black"/>
<path d="M1614 0.5V1401.5H1716.5V0.5H1614Z" fill="#616161"/>
<path d="M491.5 306H905.5V393.5H593V583H888.5V668H593V870H1027.39L969.5 957.5L491.5 958V306Z" fill="black"/>
<path d="M0 306H101.23V870H491.5V958L0 957.5V306Z" fill="black"/>
<path d="M2024.5 305.5H2134.5L2239 0.5H2134.5L2024.5 305.5Z" fill="black"/>
<path d="M1027.39 870L969.5 957.5H1082.36L1245.5 709H1249L1411.5 957.5H1530.32L1313 633V631.5L1614 196V0.5L1258 558H1254.5L1093 305.5L972.5 306L1186.5 628.5V629.5L1027.39 870Z" fill="black"/>
</svg>
