<svg width="2372" height="1401" viewBox="0 0 2372 1401" fill="none" xmlns="http://www.w3.org/2000/svg">
<path fill-rule="evenodd" clip-rule="evenodd" d="M2024.5 305L1716.5 1125.5V1401L1953.5 782H2204L2264.5 957H2371.5L2134.5 305H2024.5ZM1981 699.5L2078 413.5H2080.5L2177 699.5H1981Z" fill="#D9D9D9"/>
<path d="M1614 0V1401H1716.5V0H1614Z" fill="#EFEFEF"/>
<path d="M0 305.5H101.23V869.5H491.5V957.5L0 957V305.5Z" fill="#D9D9D9"/>
<path d="M2024.5 305H2134.5L2239 0H2134.5L2024.5 305Z" fill="#D9D9D9"/>
<path d="M1027.39 869.5L969.5 957H1082.36L1245.5 708.5H1249L1411.5 957H1530.32L1313 632.5V631L1614 195.5V0L1258 557.5H1254.5L1093 305L972.5 305.5L1186.5 628V629L1027.39 869.5Z" fill="#D9D9D9"/>
<path d="M491.5 869.5V957.5L969.5 957L1027.39 869.5H593V667.5H888.5V582.5H593V393H905.5V305.5H491.5V869.5Z" fill="#D9D9D9"/>
</svg>
